<svg xmlns="http://www.w3.org/2000/svg" viewBox="0 0 512 512">
  <defs>
    <filter id="softShadow" x="-20%" y="-20%" width="140%" height="140%">
      <feDropShadow dx="0" dy="18" stdDeviation="18" flood-color="#2f3337" flood-opacity="0.16"/>
    </filter>
  </defs>

  <rect width="512" height="512" rx="112" fill="#f2f3f7"/>

  <g opacity="0.95">
    <rect x="28" y="78" width="92" height="92" rx="4" fill="#f5568a"/>
    <rect x="392" y="332" width="72" height="72" rx="4" fill="#23c7c3"/>
    <g fill="#f5568a">
      <circle cx="404" cy="86" r="7"/>
      <circle cx="432" cy="86" r="7"/>
      <circle cx="460" cy="86" r="7"/>
      <circle cx="404" cy="114" r="7"/>
      <circle cx="432" cy="114" r="7"/>
      <circle cx="460" cy="114" r="7"/>
    </g>
    <g transform="translate(356 58) rotate(16)" fill="#f5568a">
      <rect width="12" height="74" rx="3"/>
      <rect x="24" width="12" height="74" rx="3"/>
      <rect x="48" width="12" height="74" rx="3"/>
    </g>
  </g>

  <g filter="url(#softShadow)">
    <rect x="94" y="92" width="324" height="328" rx="52" fill="#ffffff"/>

    <rect x="132" y="130" width="210" height="252" rx="28" fill="#23c7c3"/>
    <rect x="164" y="130" width="178" height="252" rx="28" fill="#dff8f7"/>
    <rect x="164" y="130" width="178" height="70" rx="28" fill="#23c7c3"/>
    <rect x="164" y="170" width="178" height="34" fill="#23c7c3"/>

    <rect x="200" y="236" width="100" height="18" rx="9" fill="#2f3337"/>
    <rect x="200" y="282" width="64" height="18" rx="9" fill="#2f3337" opacity="0.72"/>
    <path d="M203 332l30 30 68-82" fill="none" stroke="#f5568a" stroke-width="22" stroke-linecap="round" stroke-linejoin="round"/>

    <rect x="316" y="230" width="78" height="78" rx="18" fill="#f5568a"/>
    <text x="355" y="283" text-anchor="middle" font-family="Arial, Helvetica, sans-serif" font-size="50" font-weight="800" fill="#ffffff">¥</text>
  </g>
</svg>
